# Blender 4.1.1
# www.blender.org
o polyline5
v -0.583081 -0.341884 2.850729
v 0.575744 -0.352807 2.828194
v -0.313073 -0.352807 2.258612
v 0.583081 -0.352807 1.687946
v -0.290935 -0.352807 1.144236
v 0.564357 -0.352807 0.562515
v -0.270201 -0.352807 0.003143
v 0.572395 -0.352807 -0.564311
v -0.262151 -0.352807 -1.123839
v 0.579733 -0.352807 -1.704482
v -0.241417 -0.352807 -2.264869
v 0.574390 -0.352807 -2.830554
v -0.559703 -0.341884 -2.850729
vn -0.7281 0.6855 -0.0011
vn -0.7244 0.6894 0.0039
vn -0.7324 0.6807 0.0151
vn -0.7413 0.6712 0.0026
vn -0.7402 0.6724 0.0008
vn -0.7402 0.6724 0.0009
vn -0.7429 0.6694 0.0049
vn -0.7450 0.6671 0.0020
vn -0.7456 0.6664 0.0028
vn -0.4911 0.8576 0.1527
vn 0.5757 0.5771 0.5793
vn 0.5765 0.5790 -0.5766
vn -0.4733 0.8701 -0.1374
vt -0.030349 0.781050
vt 0.056524 0.836370
vt -0.028203 0.889078
vt 0.054709 0.945470
vt -0.026193 0.999695
vt 0.055488 1.054704
vt -0.025413 1.108945
vt 0.056199 1.165233
vt -0.023403 1.219557
vt 0.055681 1.274394
vt -0.054258 1.276350
vt -0.056524 0.723650
vt 0.055813 0.725835
s 0
f 3/1/1 4/2/2 5/3/3 6/4/4 7/5/5 8/6/6 9/7/7 10/8/8 11/9/9 12/10/10 13/11/11 1/12/12 2/13/13
