# Blender 4.1.1
# www.blender.org
o Cube.001
v 1.906247 3.917528 -5.001788
v 1.906247 -0.000000 -5.001787
v 1.906247 3.917528 4.926607
v 1.906247 0.000000 4.926607
v -1.970585 3.917528 -5.001788
v -1.970585 -0.000000 -5.001787
v -1.970585 3.917528 4.926607
v -1.970585 0.000000 4.926607
v 1.906247 3.917528 -3.661366
v 1.906247 -0.000000 -3.661366
v 0.637026 -0.000000 -3.661366
v 0.637026 3.917528 -3.661366
v 1.906247 3.917528 -2.347959
v -1.970585 -0.000000 -2.347959
v 1.906247 -0.000000 -2.347959
v -1.970585 3.917528 -2.347959
v 1.906247 3.917528 -1.118924
v 0.726143 -0.000000 -1.118924
v 1.906247 -0.000000 -1.118924
v 0.726143 3.917528 -1.118924
v 1.906247 3.917528 0.084680
v -1.970585 0.000000 0.084680
v 1.906247 0.000000 0.084680
v -1.970585 3.917528 0.084680
v -1.269292 3.917528 1.161131
v -1.970585 0.000000 1.161131
v -1.269292 0.000000 1.161131
v -1.970585 3.917528 1.161131
v 1.906247 3.917528 2.382875
v -1.970585 0.000000 2.382875
v 1.906247 0.000000 2.382875
v -1.970585 3.917528 2.382875
v -1.495458 3.917528 3.570024
v -1.970585 0.000000 3.570024
v -1.495458 0.000000 3.570024
v -1.970585 3.917528 3.570024
v 1.906247 -0.000000 -5.001787
v 1.906247 0.000000 4.926607
v -1.970585 -0.000000 -5.001787
v -1.970585 0.000000 4.926607
v 1.906247 -0.000000 -3.661366
v 0.637026 -0.000000 -3.661366
v -1.970585 -0.000000 -2.347959
v 1.906247 -0.000000 -2.347959
v 0.726143 -0.000000 -1.118924
v 1.906247 -0.000000 -1.118924
v -1.970585 0.000000 0.084680
v 1.906247 0.000000 0.084680
v -1.970585 0.000000 1.161131
v -1.269292 0.000000 1.161131
v -1.970585 0.000000 2.382875
v 1.906247 0.000000 2.382875
v -1.970585 0.000000 3.570024
v -1.495458 0.000000 3.570024
vn -0.4572 -0.0000 0.8894
vn 0.3704 -0.0000 -0.9289
vn -0.0000 -0.0000 -1.0000
vn -0.0000 -0.0000 1.0000
vn 1.0000 -0.0000 -0.0000
vn -0.4498 -0.0000 -0.8931
vn -0.4147 -0.0000 0.9100
vn -0.4076 -0.0000 -0.9132
vn -1.0000 -0.0000 -0.0000
vn 0.3210 -0.0000 0.9471
vn 0.3591 -0.0000 -0.9333
vn 0.3295 -0.0000 0.9442
vt 0.375000 0.466248
vt 0.625000 0.466248
vt 0.625000 0.500000
vt 0.375000 0.500000
vt 0.375000 0.715841
vt 0.625000 0.715841
vt 0.625000 0.750000
vt 0.375000 0.750000
vt 0.625000 1.000000
vt 0.375000 1.000000
vt 0.875000 0.500000
vt 0.875000 0.750000
vt 0.625000 0.533752
vt 0.375000 0.533752
vt 0.375000 0.433176
vt 0.625000 0.433176
vt 0.375000 0.402228
vt 0.625000 0.402228
vt 0.625000 0.566824
vt 0.375000 0.566824
vt 0.375000 0.371921
vt 0.625000 0.371921
vt 0.625000 0.597772
vt 0.375000 0.597772
vt 0.375000 0.344816
vt 0.625000 0.344816
vt 0.625000 0.628079
vt 0.375000 0.628079
vt 0.375000 0.314052
vt 0.625000 0.314052
vt 0.625000 0.655184
vt 0.375000 0.655184
vt 0.375000 0.284159
vt 0.625000 0.284159
vt 0.625000 0.685948
vt 0.375000 0.685948
vt 0.375000 0.250000
vt 0.625000 0.250000
s 0
f 11/1/1 12/2/1 5/3/1 6/4/1
f 35/5/2 33/6/2 3/7/2 4/8/2
f 6/8/3 5/7/3 1/9/3 2/10/3
f 4/3/4 3/11/4 7/12/4 8/7/4
f 2/4/5 1/3/5 9/13/5 10/14/5
f 14/15/6 16/16/6 12/2/6 11/1/6
f 18/17/7 20/18/7 16/16/7 14/15/7
f 10/14/5 9/13/5 13/19/5 15/20/5
f 22/21/8 24/22/8 20/18/8 18/17/8
f 15/20/5 13/19/5 17/23/5 19/24/5
f 26/25/9 28/26/9 24/22/9 22/21/9
f 19/24/5 17/23/5 21/27/5 23/28/5
f 30/29/9 32/30/9 28/26/9 26/25/9
f 23/28/10 21/27/10 25/31/10 27/32/10
f 34/33/9 36/34/9 32/30/9 30/29/9
f 27/32/11 25/31/11 29/35/11 31/36/11
f 8/37/9 7/38/9 36/34/9 34/33/9
f 31/36/12 29/35/12 33/6/12 35/5/12
l 41 37
l 53 40
l 40 38
l 37 39
l 44 41
l 39 42
l 41 42
l 42 43
l 46 44
l 44 43
l 43 45
l 48 46
l 46 45
l 45 47
l 50 48
l 48 47
l 47 49
l 52 50
l 50 49
l 49 51
l 54 52
l 52 51
l 51 53
l 38 54
l 54 53
